<mxfile host="app.diagrams.net" modified="2020-05-18T02:38:00.006Z" agent="5.0 (Windows NT 10.0; Win64; x64) AppleWebKit/537.36 (KHTML, like Gecko) Chrome/80.0.3987.163 Safari/537.36" etag="puRadQz1xGy6XW2FK7tF" version="13.1.2" type="github">
  <diagram id="sd3B13jJpRDf2u8jtMgA" name="Page-1">
    <mxGraphModel dx="1248" dy="677" grid="1" gridSize="10" guides="1" tooltips="1" connect="1" arrows="1" fold="1" page="1" pageScale="1" pageWidth="827" pageHeight="1169" math="1" shadow="0">
      <root>
        <mxCell id="0" />
        <mxCell id="1" parent="0" />
        <mxCell id="WeZ2IR0lr3XahTYSVris-1" value="" style="endArrow=classic;html=1;" parent="1" edge="1">
          <mxGeometry width="50" height="50" relative="1" as="geometry">
            <mxPoint x="240" y="480" as="sourcePoint" />
            <mxPoint x="600" y="480" as="targetPoint" />
          </mxGeometry>
        </mxCell>
        <mxCell id="WeZ2IR0lr3XahTYSVris-2" value="" style="endArrow=classic;html=1;" parent="1" edge="1">
          <mxGeometry width="50" height="50" relative="1" as="geometry">
            <mxPoint x="240" y="480" as="sourcePoint" />
            <mxPoint x="240" y="120" as="targetPoint" />
          </mxGeometry>
        </mxCell>
        <mxCell id="WeZ2IR0lr3XahTYSVris-3" value="" style="ellipse;whiteSpace=wrap;html=1;aspect=fixed;fillColor=#000000;" parent="1" vertex="1">
          <mxGeometry x="390" y="310" width="20" height="20" as="geometry" />
        </mxCell>
        <mxCell id="WeZ2IR0lr3XahTYSVris-6" value="" style="ellipse;whiteSpace=wrap;html=1;aspect=fixed;fillColor=none;" parent="1" vertex="1">
          <mxGeometry x="290" y="369" width="20" height="20" as="geometry" />
        </mxCell>
        <mxCell id="WeZ2IR0lr3XahTYSVris-7" value="" style="endArrow=none;dashed=1;html=1;strokeWidth=1;rounded=1;" parent="1" edge="1">
          <mxGeometry width="50" height="50" relative="1" as="geometry">
            <mxPoint x="250" y="320" as="sourcePoint" />
            <mxPoint x="590" y="320" as="targetPoint" />
          </mxGeometry>
        </mxCell>
        <mxCell id="WeZ2IR0lr3XahTYSVris-8" value="" style="endArrow=none;dashed=1;html=1;strokeWidth=1;" parent="1" edge="1">
          <mxGeometry width="50" height="50" relative="1" as="geometry">
            <mxPoint x="400" y="470" as="sourcePoint" />
            <mxPoint x="400" y="130" as="targetPoint" />
          </mxGeometry>
        </mxCell>
        <mxCell id="WeZ2IR0lr3XahTYSVris-10" value="$$S_6$$" style="text;html=1;align=center;verticalAlign=middle;resizable=0;points=[];autosize=1;" parent="1" vertex="1">
          <mxGeometry x="255" y="390" width="60" height="20" as="geometry" />
        </mxCell>
        <mxCell id="2dAD3_NS9G8v4JM35WLH-1" value="" style="ellipse;whiteSpace=wrap;html=1;aspect=fixed;fillColor=none;" parent="1" vertex="1">
          <mxGeometry x="290" y="286" width="20" height="20" as="geometry" />
        </mxCell>
        <mxCell id="2dAD3_NS9G8v4JM35WLH-2" value="$$S_5$$" style="text;html=1;align=center;verticalAlign=middle;resizable=0;points=[];autosize=1;" parent="1" vertex="1">
          <mxGeometry x="250" y="280" width="60" height="20" as="geometry" />
        </mxCell>
        <mxCell id="2dAD3_NS9G8v4JM35WLH-4" value="" style="ellipse;whiteSpace=wrap;html=1;aspect=fixed;fillColor=none;" parent="1" vertex="1">
          <mxGeometry x="370" y="142" width="20" height="20" as="geometry" />
        </mxCell>
        <mxCell id="2dAD3_NS9G8v4JM35WLH-5" value="$$S_1$$" style="text;html=1;align=center;verticalAlign=middle;resizable=0;points=[];autosize=1;" parent="1" vertex="1">
          <mxGeometry x="330" y="135" width="60" height="20" as="geometry" />
        </mxCell>
        <mxCell id="2dAD3_NS9G8v4JM35WLH-6" value="" style="ellipse;whiteSpace=wrap;html=1;aspect=fixed;fillColor=none;" parent="1" vertex="1">
          <mxGeometry x="360" y="172" width="20" height="20" as="geometry" />
        </mxCell>
        <mxCell id="2dAD3_NS9G8v4JM35WLH-7" value="$$S_2$$" style="text;html=1;align=center;verticalAlign=middle;resizable=0;points=[];autosize=1;" parent="1" vertex="1">
          <mxGeometry x="320" y="162" width="60" height="20" as="geometry" />
        </mxCell>
        <mxCell id="2dAD3_NS9G8v4JM35WLH-8" value="" style="ellipse;whiteSpace=wrap;html=1;aspect=fixed;fillColor=none;" parent="1" vertex="1">
          <mxGeometry x="350" y="213" width="20" height="20" as="geometry" />
        </mxCell>
        <mxCell id="2dAD3_NS9G8v4JM35WLH-9" value="$$S_3$$" style="text;html=1;align=center;verticalAlign=middle;resizable=0;points=[];autosize=1;" parent="1" vertex="1">
          <mxGeometry x="310" y="203" width="60" height="20" as="geometry" />
        </mxCell>
        <mxCell id="2dAD3_NS9G8v4JM35WLH-10" value="" style="ellipse;whiteSpace=wrap;html=1;aspect=fixed;fillColor=none;" parent="1" vertex="1">
          <mxGeometry x="320" y="260" width="20" height="20" as="geometry" />
        </mxCell>
        <mxCell id="2dAD3_NS9G8v4JM35WLH-11" value="$$S_4$$" style="text;html=1;align=center;verticalAlign=middle;resizable=0;points=[];autosize=1;" parent="1" vertex="1">
          <mxGeometry x="280" y="250" width="60" height="20" as="geometry" />
        </mxCell>
        <mxCell id="2dAD3_NS9G8v4JM35WLH-12" value="$$O^{&#39;}$$" style="text;html=1;align=center;verticalAlign=middle;resizable=0;points=[];autosize=1;" parent="1" vertex="1">
          <mxGeometry x="348" y="326" width="70" height="20" as="geometry" />
        </mxCell>
        <mxCell id="2dAD3_NS9G8v4JM35WLH-13" value="$$O$$" style="text;html=1;align=center;verticalAlign=middle;resizable=0;points=[];autosize=1;" parent="1" vertex="1">
          <mxGeometry x="205" y="480" width="50" height="20" as="geometry" />
        </mxCell>
        <mxCell id="2dAD3_NS9G8v4JM35WLH-14" value="$$S_r$$" style="text;html=1;align=center;verticalAlign=middle;resizable=0;points=[];autosize=1;" parent="1" vertex="1">
          <mxGeometry x="352" y="296" width="60" height="20" as="geometry" />
        </mxCell>
        <mxCell id="2dAD3_NS9G8v4JM35WLH-37" style="edgeStyle=orthogonalEdgeStyle;rounded=1;orthogonalLoop=1;jettySize=auto;html=1;exitX=0.5;exitY=1;exitDx=0;exitDy=0;endArrow=none;endFill=0;fillColor=#fa6800;strokeColor=#FF0000;strokeWidth=1;" parent="1" source="2dAD3_NS9G8v4JM35WLH-15" edge="1">
          <mxGeometry relative="1" as="geometry">
            <mxPoint x="430" y="175" as="targetPoint" />
          </mxGeometry>
        </mxCell>
        <mxCell id="2dAD3_NS9G8v4JM35WLH-15" value="" style="ellipse;whiteSpace=wrap;html=1;aspect=fixed;fillColor=#CCCCCC;dashed=1;" parent="1" vertex="1">
          <mxGeometry x="410" y="142" width="20" height="20" as="geometry" />
        </mxCell>
        <mxCell id="2dAD3_NS9G8v4JM35WLH-16" value="$$S_{1}^{&#39;}$$" style="text;html=1;align=center;verticalAlign=middle;resizable=0;points=[];autosize=1;" parent="1" vertex="1">
          <mxGeometry x="396" y="132" width="90" height="20" as="geometry" />
        </mxCell>
        <mxCell id="2dAD3_NS9G8v4JM35WLH-17" value="" style="ellipse;whiteSpace=wrap;html=1;aspect=fixed;fillColor=#CCCCCC;dashed=1;" parent="1" vertex="1">
          <mxGeometry x="420" y="172" width="20" height="20" as="geometry" />
        </mxCell>
        <mxCell id="2dAD3_NS9G8v4JM35WLH-18" value="" style="ellipse;whiteSpace=wrap;html=1;aspect=fixed;fillColor=#CCCCCC;dashed=1;" parent="1" vertex="1">
          <mxGeometry x="431" y="210" width="20" height="20" as="geometry" />
        </mxCell>
        <mxCell id="2dAD3_NS9G8v4JM35WLH-19" value="" style="ellipse;whiteSpace=wrap;html=1;aspect=fixed;fillColor=#CCCCCC;dashed=1;" parent="1" vertex="1">
          <mxGeometry x="460" y="260" width="19" height="20" as="geometry" />
        </mxCell>
        <mxCell id="2dAD3_NS9G8v4JM35WLH-20" value="" style="ellipse;whiteSpace=wrap;html=1;aspect=fixed;fillColor=none;" parent="1" vertex="1">
          <mxGeometry x="440" y="375" width="20" height="20" as="geometry" />
        </mxCell>
        <mxCell id="2dAD3_NS9G8v4JM35WLH-21" value="$$S_7$$" style="text;html=1;align=center;verticalAlign=middle;resizable=0;points=[];autosize=1;" parent="1" vertex="1">
          <mxGeometry x="410" y="395" width="60" height="20" as="geometry" />
        </mxCell>
        <mxCell id="2dAD3_NS9G8v4JM35WLH-22" value="" style="ellipse;whiteSpace=wrap;html=1;aspect=fixed;fillColor=none;" parent="1" vertex="1">
          <mxGeometry x="531" y="326" width="20" height="20" as="geometry" />
        </mxCell>
        <mxCell id="2dAD3_NS9G8v4JM35WLH-23" value="$$S_8$$" style="text;html=1;align=center;verticalAlign=middle;resizable=0;points=[];autosize=1;" parent="1" vertex="1">
          <mxGeometry x="499" y="346" width="60" height="20" as="geometry" />
        </mxCell>
        <mxCell id="2dAD3_NS9G8v4JM35WLH-24" value="" style="ellipse;whiteSpace=wrap;html=1;aspect=fixed;fillColor=#CCCCCC;dashed=1;" parent="1" vertex="1">
          <mxGeometry x="438" y="244" width="19" height="20" as="geometry" />
        </mxCell>
        <mxCell id="2dAD3_NS9G8v4JM35WLH-45" style="edgeStyle=orthogonalEdgeStyle;rounded=1;orthogonalLoop=1;jettySize=auto;html=1;exitX=0.5;exitY=0;exitDx=0;exitDy=0;entryX=1;entryY=0;entryDx=0;entryDy=0;endArrow=none;endFill=0;strokeColor=#FF0000;strokeWidth=1;" parent="1" source="2dAD3_NS9G8v4JM35WLH-25" target="2dAD3_NS9G8v4JM35WLH-31" edge="1">
          <mxGeometry relative="1" as="geometry" />
        </mxCell>
        <mxCell id="2dAD3_NS9G8v4JM35WLH-47" style="edgeStyle=orthogonalEdgeStyle;rounded=1;orthogonalLoop=1;jettySize=auto;html=1;exitX=1;exitY=0.5;exitDx=0;exitDy=0;endArrow=none;endFill=0;strokeColor=#FF0000;strokeWidth=1;" parent="1" source="2dAD3_NS9G8v4JM35WLH-25" edge="1">
          <mxGeometry relative="1" as="geometry">
            <mxPoint x="590" y="303.344827586207" as="targetPoint" />
          </mxGeometry>
        </mxCell>
        <mxCell id="2dAD3_NS9G8v4JM35WLH-25" value="" style="ellipse;whiteSpace=wrap;html=1;aspect=fixed;fillColor=#CCCCCC;dashed=1;" parent="1" vertex="1">
          <mxGeometry x="532" y="293" width="19" height="20" as="geometry" />
        </mxCell>
        <mxCell id="2dAD3_NS9G8v4JM35WLH-26" value="" style="ellipse;whiteSpace=wrap;html=1;aspect=fixed;fillColor=none;" parent="1" vertex="1">
          <mxGeometry x="479" y="193" width="20" height="20" as="geometry" />
        </mxCell>
        <mxCell id="2dAD3_NS9G8v4JM35WLH-30" value="" style="ellipse;whiteSpace=wrap;html=1;aspect=fixed;fillColor=none;dashed=1;" parent="1" vertex="1">
          <mxGeometry x="490" y="249" width="20" height="20" as="geometry" />
        </mxCell>
        <mxCell id="2dAD3_NS9G8v4JM35WLH-46" style="edgeStyle=orthogonalEdgeStyle;rounded=1;orthogonalLoop=1;jettySize=auto;html=1;exitX=0.5;exitY=0;exitDx=0;exitDy=0;entryX=1;entryY=0.5;entryDx=0;entryDy=0;endArrow=none;endFill=0;strokeColor=#FF0000;strokeWidth=1;" parent="1" source="2dAD3_NS9G8v4JM35WLH-31" target="2dAD3_NS9G8v4JM35WLH-19" edge="1">
          <mxGeometry relative="1" as="geometry" />
        </mxCell>
        <mxCell id="2dAD3_NS9G8v4JM35WLH-31" value="" style="ellipse;whiteSpace=wrap;html=1;aspect=fixed;fillColor=#CCCCCC;dashed=1;" parent="1" vertex="1">
          <mxGeometry x="490.5" y="286" width="19" height="20" as="geometry" />
        </mxCell>
        <mxCell id="2dAD3_NS9G8v4JM35WLH-32" value="$$S_{2}^{&#39;}$$" style="text;html=1;align=center;verticalAlign=middle;resizable=0;points=[];autosize=1;" parent="1" vertex="1">
          <mxGeometry x="402.5" y="162" width="90" height="20" as="geometry" />
        </mxCell>
        <mxCell id="2dAD3_NS9G8v4JM35WLH-34" value="$$S_9$$" style="text;html=1;align=center;verticalAlign=middle;resizable=0;points=[];autosize=1;" parent="1" vertex="1">
          <mxGeometry x="479" y="182" width="60" height="20" as="geometry" />
        </mxCell>
        <mxCell id="2dAD3_NS9G8v4JM35WLH-35" value="$$S_{3}^{&#39;}$$" style="text;html=1;align=center;verticalAlign=middle;resizable=0;points=[];autosize=1;" parent="1" vertex="1">
          <mxGeometry x="418" y="202" width="90" height="20" as="geometry" />
        </mxCell>
        <mxCell id="2dAD3_NS9G8v4JM35WLH-36" value="$$S_{7}^{&#39;}$$" style="text;html=1;align=center;verticalAlign=middle;resizable=0;points=[];autosize=1;" parent="1" vertex="1">
          <mxGeometry x="418" y="229" width="90" height="20" as="geometry" />
        </mxCell>
        <mxCell id="2dAD3_NS9G8v4JM35WLH-38" style="edgeStyle=orthogonalEdgeStyle;rounded=1;orthogonalLoop=1;jettySize=auto;html=1;exitX=0.5;exitY=1;exitDx=0;exitDy=0;endArrow=none;endFill=0;fillColor=#fa6800;strokeColor=#FF0000;strokeWidth=1;" parent="1" source="2dAD3_NS9G8v4JM35WLH-17" target="2dAD3_NS9G8v4JM35WLH-18" edge="1">
          <mxGeometry relative="1" as="geometry">
            <mxPoint x="440" y="162" as="sourcePoint" />
            <mxPoint x="460" y="220" as="targetPoint" />
            <Array as="points">
              <mxPoint x="440" y="192" />
            </Array>
          </mxGeometry>
        </mxCell>
        <mxCell id="2dAD3_NS9G8v4JM35WLH-40" style="edgeStyle=orthogonalEdgeStyle;rounded=1;orthogonalLoop=1;jettySize=auto;html=1;exitX=0.5;exitY=1;exitDx=0;exitDy=0;endArrow=none;endFill=0;fillColor=#fa6800;strokeColor=#FF0000;strokeWidth=1;entryX=0.5;entryY=0;entryDx=0;entryDy=0;" parent="1" source="2dAD3_NS9G8v4JM35WLH-18" target="2dAD3_NS9G8v4JM35WLH-24" edge="1">
          <mxGeometry relative="1" as="geometry">
            <mxPoint x="440" y="202" as="sourcePoint" />
            <mxPoint x="450" y="220.05012562893376" as="targetPoint" />
            <Array as="points">
              <mxPoint x="450" y="230" />
              <mxPoint x="450" y="244" />
            </Array>
          </mxGeometry>
        </mxCell>
        <mxCell id="2dAD3_NS9G8v4JM35WLH-42" style="edgeStyle=orthogonalEdgeStyle;rounded=1;orthogonalLoop=1;jettySize=auto;html=1;exitX=1;exitY=0.5;exitDx=0;exitDy=0;endArrow=none;endFill=0;fillColor=#fa6800;strokeColor=#FF0000;strokeWidth=1;entryX=0.5;entryY=0;entryDx=0;entryDy=0;" parent="1" source="2dAD3_NS9G8v4JM35WLH-24" target="2dAD3_NS9G8v4JM35WLH-19" edge="1">
          <mxGeometry relative="1" as="geometry">
            <mxPoint x="451" y="240" as="sourcePoint" />
            <mxPoint x="457.5" y="254" as="targetPoint" />
            <Array as="points">
              <mxPoint x="470" y="254" />
            </Array>
          </mxGeometry>
        </mxCell>
        <mxCell id="2dAD3_NS9G8v4JM35WLH-48" value="$$S_{4}^{&#39;}$$" style="text;html=1;align=center;verticalAlign=middle;resizable=0;points=[];autosize=1;" parent="1" vertex="1">
          <mxGeometry x="431" y="244" width="90" height="20" as="geometry" />
        </mxCell>
        <mxCell id="2dAD3_NS9G8v4JM35WLH-49" value="$$S_{6}^{&#39;}$$" style="text;html=1;align=center;verticalAlign=middle;resizable=0;points=[];autosize=1;" parent="1" vertex="1">
          <mxGeometry x="470" y="233" width="90" height="20" as="geometry" />
        </mxCell>
        <mxCell id="2dAD3_NS9G8v4JM35WLH-50" value="$$S_{5}^{&#39;}$$" style="text;html=1;align=center;verticalAlign=middle;resizable=0;points=[];autosize=1;" parent="1" vertex="1">
          <mxGeometry x="470" y="273" width="90" height="20" as="geometry" />
        </mxCell>
        <mxCell id="2dAD3_NS9G8v4JM35WLH-51" value="$$S_{8}^{&#39;}$$" style="text;html=1;align=center;verticalAlign=middle;resizable=0;points=[];autosize=1;" parent="1" vertex="1">
          <mxGeometry x="510" y="276" width="90" height="20" as="geometry" />
        </mxCell>
      </root>
    </mxGraphModel>
  </diagram>
</mxfile>
